# xmcd CD Database Entry
#
# Track frame offsets:
# 187
# 34237
# 83887
# 107512
# 135637
# 203587
# 262312
# 280787
#
# Disc length: 4058 seconds
#
# Revision: 1
# Processed by: cddbd v1.5.1PL0 Copyright (c) Steve Scherf et al.
# Submitted via: tcd 2.0b
#
DISCID=6e0fd808
DTITLE=Schubert - Musically Speaking [CD1]
DYEAR=1900
DGENRE=
TTITLE0=Symphony No 5 in B-flat Major I Allegro
TTITLE1=Symphony No 5 in B-flat Major II Andante con motto
TTITLE2=Symphony No 5 in B-flat Major III Menuetto: Allegro molto
TTITLE3=Symphony No 5 in B-flat Major IV Finale: Allegro vivace
TTITLE4=Symphony No 8 in B Minor I Allegro moderato
TTITLE5=Symphony No 8 in B Minor II Andante con moto
TTITLE6=German Dances I-III
TTITLE7=German Dances IV-VI
EXTD=
EXTT0=Symphony No. 5 in B-flat Major, D.485
EXTT1=Symphony No. 5 in B-flat Major, D.485
EXTT2=Symphony No. 5 in B-flat Major, D.485
EXTT3=Symphony No. 5 in B-flat Major, D.485
EXTT4=Symphony No 8 in B Minor, D.759 Unfinished
EXTT5=Symphony No 8 in B Minor, D.759 Unfinished
EXTT6=German Dances, D.820
EXTT7=German Dances, D.820
PLAYORDER=
